<?xml version="1.0" standalone="no"?>
<!DOCTYPE svg PUBLIC "-//W3C//DTD SVG 20010904//EN"
 "http://www.w3.org/TR/2001/REC-SVG-20010904/DTD/svg10.dtd">
<svg version="1.0" xmlns="http://www.w3.org/2000/svg"
 width="1810.000000pt" height="985.000000pt" viewBox="0 0 1810.000000 985.000000"
 preserveAspectRatio="xMidYMid meet">

<g transform="translate(0.000000,985.000000) scale(0.100000,-0.100000)"
fill="#000000" stroke="none">
<path d="M10933 9532 c-106 -38 -190 -120 -243 -237 -42 -91 -53 -159 -48
-279 l5 -106 -61 0 c-78 -1 -132 -25 -195 -88 -179 -179 -174 -524 10 -713 54
-55 112 -87 174 -96 50 -6 49 -6 35 -34 -9 -16 -7 -19 10 -19 14 0 20 -7 20
-22 0 -25 36 -421 46 -508 l6 -55 -23 20 -22 20 22 -31 22 -30 -43 -80 c-42
-77 -43 -82 -43 -169 1 -81 5 -104 49 -230 44 -125 49 -149 50 -230 0 -73 -4
-99 -22 -139 -12 -27 -20 -51 -17 -54 2 -3 15 17 27 44 19 41 22 66 22 149 0
93 -3 110 -46 235 -53 155 -64 211 -52 278 l8 47 7 -50 6 -50 2 45 2 45 15
-35 c8 -19 60 -80 114 -136 59 -59 108 -119 119 -145 12 -24 21 -38 21 -31 0
30 -39 83 -136 183 -131 136 -151 191 -95 260 l19 24 29 -25 28 -25 -22 26
c-24 27 -28 49 -15 77 5 9 5 31 1 47 l-7 30 -2 -35 c-3 -63 -9 -19 -35 263
-30 329 -29 298 -9 290 14 -5 15 -3 5 15 -15 28 -14 32 7 32 10 0 41 11 67 25
37 18 51 21 57 12 5 -8 8 -6 8 7 0 10 18 39 41 63 105 114 147 333 93 486 -8
22 -14 41 -14 43 0 2 21 4 48 4 31 0 67 10 107 29 264 125 352 544 161 767
-75 88 -206 124 -313 86z m7 -47 c0 -3 -27 -38 -61 -77 -33 -40 -79 -110 -102
-156 -28 -58 -45 -82 -56 -79 -24 4 -16 61 19 135 37 78 136 182 174 182 14 0
26 -2 26 -5z m-214 -396 c-3 -34 -6 -74 -7 -88 -1 -57 -18 14 -18 82 -1 56 2
67 15 67 15 0 16 -9 10 -61z m-311 -352 c-40 -86 -65 -174 -65 -227 0 -41 -6
-51 -26 -43 -32 12 -5 178 43 266 25 44 71 93 80 84 2 -2 -13 -38 -32 -80z
m-72 -314 c3 -5 7 -30 10 -58 6 -48 6 -49 -7 -20 -20 45 -28 85 -17 85 5 0 12
-3 14 -7z"/>
<path d="M16603 8662 c-106 -38 -190 -120 -243 -237 -42 -91 -53 -159 -48
-279 l5 -106 -61 0 c-78 -1 -132 -25 -195 -88 -179 -179 -174 -524 10 -713 54
-55 112 -87 174 -96 50 -6 49 -6 35 -34 -9 -16 -7 -19 10 -19 14 0 20 -7 20
-22 0 -25 36 -421 46 -508 l6 -55 -23 20 -22 20 22 -31 22 -30 -43 -80 c-42
-77 -43 -82 -43 -169 1 -81 5 -104 49 -230 44 -125 49 -149 50 -230 0 -73 -4
-99 -22 -139 -12 -27 -20 -51 -17 -54 2 -3 15 17 27 44 19 41 22 66 22 149 0
93 -3 110 -46 235 -53 155 -64 211 -52 278 l8 47 7 -50 6 -50 2 45 2 45 15
-35 c8 -19 60 -80 114 -136 59 -59 108 -119 119 -145 12 -24 21 -38 21 -31 0
30 -39 83 -136 183 -131 136 -151 191 -95 260 l19 24 29 -25 28 -25 -22 26
c-24 27 -28 49 -15 77 5 9 5 31 1 47 l-7 30 -2 -35 c-3 -63 -9 -19 -35 263
-30 329 -29 298 -9 290 14 -5 15 -3 5 15 -15 28 -14 32 7 32 10 0 41 11 67 25
37 18 51 21 57 12 5 -8 8 -6 8 7 0 10 18 39 41 63 105 114 147 333 93 486 -8
22 -14 41 -14 43 0 2 21 4 48 4 31 0 67 10 107 29 264 125 352 544 161 767
-75 88 -206 124 -313 86z m7 -47 c0 -3 -27 -38 -61 -77 -33 -40 -79 -110 -102
-156 -28 -58 -45 -82 -56 -79 -24 4 -16 61 19 135 37 78 136 182 174 182 14 0
26 -2 26 -5z m-214 -396 c-3 -34 -6 -74 -7 -88 -1 -57 -18 14 -18 82 -1 56 2
67 15 67 15 0 16 -9 10 -61z m-311 -352 c-40 -86 -65 -174 -65 -227 0 -41 -6
-51 -26 -43 -32 12 -5 178 43 266 25 44 71 93 80 84 2 -2 -13 -38 -32 -80z
m-72 -314 c3 -5 7 -30 10 -58 6 -48 6 -49 -7 -20 -20 45 -28 85 -17 85 5 0 12
-3 14 -7z"/>
<path d="M2238 8159 c-15 -8 -26 -39 -14 -39 15 0 76 32 76 40 0 13 -40 12
-62 -1z"/>
<path d="M14158 8159 c-15 -8 -26 -39 -14 -39 15 0 76 32 76 40 0 13 -40 12
-62 -1z"/>
<path d="M2756 8021 c-33 -36 -59 -144 -40 -163 3 -4 32 3 65 14 67 22 65 14
27 116 -11 28 -23 52 -27 52 -4 0 -16 -9 -25 -19z"/>
<path d="M14676 8021 c-33 -36 -59 -144 -40 -163 3 -4 32 3 65 14 67 22 65 14
27 116 -11 28 -23 52 -27 52 -4 0 -16 -9 -25 -19z"/>
<path d="M10792 7990 c0 -19 2 -27 5 -17 2 9 2 25 0 35 -3 9 -5 1 -5 -18z"/>
<path d="M11005 7930 c-14 -27 -23 -50 -20 -50 2 0 16 23 30 50 14 28 23 50
20 50 -2 0 -16 -22 -30 -50z"/>
<path d="M2918 7921 c2 -29 -2 -60 -11 -76 l-14 -28 -7 34 c-7 34 -7 34 -19
10 -10 -19 -60 -41 -272 -117 -279 -101 -448 -158 -513 -172 -39 -9 -41 -8
-53 19 -6 16 -13 29 -15 29 -11 0 -305 -164 -315 -176 -29 -35 30 -21 167 40
82 36 153 66 158 66 6 0 20 -21 30 -47 22 -52 117 -196 171 -258 29 -34 37
-38 52 -29 28 18 50 62 79 163 23 80 25 99 15 126 -30 85 13 171 78 150 10 -3
29 -26 42 -50 13 -25 27 -45 31 -45 8 0 28 66 28 94 0 15 5 17 28 11 15 -5 63
-11 107 -15 44 -4 72 -8 63 -8 -10 -1 -18 -6 -18 -12 0 -11 69 -14 94 -4 25
10 19 24 -11 25 -22 0 -18 4 22 17 33 11 68 34 103 67 57 56 71 90 23 56 -41
-29 -44 -26 -16 15 14 20 25 51 25 68 0 30 -32 96 -47 96 -5 0 -6 -22 -5 -49z"/>
<path d="M14838 7921 c2 -29 -2 -60 -11 -76 l-14 -28 -7 34 c-7 34 -7 34 -19
10 -10 -19 -60 -41 -272 -117 -279 -101 -448 -158 -513 -172 -39 -9 -41 -8
-53 19 -6 16 -13 29 -15 29 -11 0 -305 -164 -315 -176 -29 -35 30 -21 167 40
82 36 153 66 158 66 6 0 20 -21 30 -47 22 -52 117 -196 171 -258 29 -34 37
-38 52 -29 28 18 50 62 79 163 23 80 25 99 15 126 -30 85 13 171 78 150 10 -3
29 -26 42 -50 13 -25 27 -45 31 -45 8 0 28 66 28 94 0 15 5 17 28 11 15 -5 63
-11 107 -15 44 -4 72 -8 63 -8 -10 -1 -18 -6 -18 -12 0 -11 69 -14 94 -4 25
10 19 24 -11 25 -22 0 -18 4 22 17 33 11 68 34 103 67 57 56 71 90 23 56 -41
-29 -44 -26 -16 15 14 20 25 51 25 68 0 30 -32 96 -47 96 -5 0 -6 -22 -5 -49z"/>
<path d="M10782 7920 c0 -19 2 -27 5 -17 2 9 2 25 0 35 -3 9 -5 1 -5 -18z"/>
<path d="M10772 7845 c0 -16 2 -22 5 -12 2 9 2 23 0 30 -3 6 -5 -1 -5 -18z"/>
<path d="M10762 7775 c0 -16 2 -22 5 -12 2 9 2 23 0 30 -3 6 -5 -1 -5 -18z"/>
<path d="M10885 7700 c-14 -27 -23 -50 -20 -50 2 0 16 23 30 50 14 28 23 50
20 50 -2 0 -16 -22 -30 -50z"/>
<path d="M10752 7700 c0 -19 2 -27 5 -17 2 9 2 25 0 35 -3 9 -5 1 -5 -18z"/>
<path d="M10742 7630 c0 -19 2 -27 5 -17 2 9 2 25 0 35 -3 9 -5 1 -5 -18z"/>
<path d="M10732 7555 c0 -16 2 -22 5 -12 2 9 2 23 0 30 -3 6 -5 -1 -5 -18z"/>
<path d="M2759 7544 c-11 -13 -9 -14 15 -8 19 4 31 2 37 -7 4 -7 11 -10 15 -6
10 10 -16 37 -36 37 -10 0 -23 -7 -31 -16z"/>
<path d="M14679 7544 c-11 -13 -9 -14 15 -8 19 4 31 2 37 -7 4 -7 11 -10 15
-6 10 10 -16 37 -36 37 -10 0 -23 -7 -31 -16z"/>
<path d="M10770 7480 c-11 -22 -18 -40 -15 -40 2 0 14 18 25 40 11 22 18 40
15 40 -2 0 -14 -18 -25 -40z"/>
<path d="M10722 7485 c0 -16 2 -22 5 -12 2 9 2 23 0 30 -3 6 -5 -1 -5 -18z"/>
<path d="M820 7323 c-28 -26 -33 -38 -50 -148 -26 -160 -26 -179 5 -203 l25
-20 -69 -453 c-64 -414 -69 -455 -56 -485 9 -21 26 -39 47 -48 41 -18 898
-149 942 -144 l31 3 -3 -107 c-4 -97 -2 -111 21 -162 l26 -56 -30 0 c-42 0
-69 -31 -69 -81 0 -35 6 -48 39 -80 45 -45 74 -49 204 -24 121 23 110 31 156
-108 23 -67 41 -128 41 -134 0 -12 -134 -205 -296 -429 l-74 -102 -65 35
c-114 60 -191 78 -345 78 -114 0 -147 -4 -210 -23 -253 -80 -433 -260 -511
-512 -34 -108 -34 -302 0 -410 78 -253 270 -442 521 -516 100 -29 310 -27 410
4 246 78 423 250 504 489 l23 67 142 -3 c141 -3 142 -3 129 18 -11 18 -9 24
15 49 l28 29 -38 6 c-21 4 -83 7 -138 7 -55 0 -105 4 -111 8 -6 4 -14 48 -17
98 -13 179 -85 340 -213 474 l-34 35 58 85 c31 47 104 152 162 234 l104 148
140 -420 140 -420 -24 -52 c-20 -42 -22 -55 -12 -71 7 -10 12 -30 12 -44 0
-25 1 -25 83 -25 79 -1 81 -1 50 -15 -36 -16 -73 -68 -73 -103 0 -38 30 -92
61 -107 77 -41 167 2 178 84 6 41 8 43 66 67 47 19 78 24 143 24 80 0 82 0 82
25 0 23 3 24 78 27 l77 3 3 31 c4 43 -26 76 -107 115 -39 19 -69 37 -68 41 1
4 224 203 496 443 478 422 495 436 506 413 11 -20 56 -139 140 -364 l22 -61
-29 -18 c-141 -83 -263 -246 -319 -425 -34 -108 -34 -302 0 -410 101 -327 386
-540 721 -540 335 0 620 213 721 540 34 108 34 302 0 410 -78 253 -269 442
-521 516 -95 28 -320 26 -408 -3 -34 -12 -64 -18 -66 -14 -15 24 -282 717
-323 841 l-26 75 96 90 c134 127 136 132 83 242 -29 60 -40 73 -69 82 -62 21
-119 -20 -119 -84 0 -38 33 -85 59 -85 17 0 17 -15 -2 -30 -12 -10 -36 -9
-123 4 -149 24 -148 23 -176 51 -37 36 -88 34 -128 -5 -26 -27 -30 -36 -25
-68 10 -57 45 -82 115 -80 52 1 99 -4 174 -18 l27 -5 -20 -32 c-10 -18 -19
-44 -19 -59 0 -35 34 -126 53 -141 12 -11 97 -220 97 -240 0 -4 -175 -7 -390
-7 -335 0 -390 2 -390 15 0 8 16 58 35 112 19 54 35 109 35 122 0 46 -40 110
-83 135 -50 29 -220 82 -539 167 -221 58 -237 64 -233 83 3 12 16 97 30 190
14 94 27 172 30 174 2 2 23 -11 47 -30 24 -19 71 -54 104 -76 l62 -41 38 28
c54 39 82 73 66 78 -28 10 -171 119 -232 177 -86 81 -119 125 -170 226 -125
249 -168 457 -115 560 24 47 91 74 146 60 55 -15 116 -80 162 -172 41 -81 49
-71 15 19 -29 78 -104 154 -177 178 -75 25 -219 17 -323 -17 l-78 -26 0 33 c0
37 -35 81 -72 90 -51 11 -950 145 -978 145 -18 0 -41 -10 -60 -27z m553 -173
c215 -33 404 -65 419 -71 36 -15 58 -50 58 -95 0 -54 -148 -999 -161 -1027 -6
-14 -26 -33 -45 -43 -33 -18 -37 -18 -416 40 -211 31 -397 62 -414 67 -36 11
-69 44 -77 77 -3 13 30 253 74 534 70 455 82 515 102 536 18 20 45 37 65 41 1
1 179 -26 395 -59z m617 -137 c-12 -16 -35 -49 -52 -75 -17 -27 -33 -48 -35
-48 -4 0 2 46 12 96 3 13 19 27 42 37 54 22 57 20 33 -10z m250 -1729 c24 -5
36 -21 103 -132 l19 -33 -92 3 -93 3 -23 67 c-41 124 -43 112 12 104 27 -4 60
-9 74 -12z m516 -76 c-3 -13 -6 -29 -6 -36 0 -21 -17 -5 -28 28 -10 28 -9 30
15 30 21 0 24 -3 19 -22z m-251 -309 l78 -121 -37 -260 c-20 -144 -35 -263
-32 -265 2 -2 7 14 11 36 8 48 7 48 160 26 55 -8 105 -15 111 -15 6 0 69 162
140 360 l129 360 378 0 c207 0 377 -2 377 -4 0 -3 -610 -544 -954 -846 l-35
-31 -58 15 c-32 9 -111 21 -174 28 l-116 12 -123 370 c-68 204 -129 390 -136
414 l-13 42 108 0 108 0 78 -121z m-994 -302 c70 -23 131 -51 168 -76 11 -7
-8 -41 -94 -163 -260 -369 -297 -418 -314 -418 -50 0 -94 -67 -81 -125 18 -79
94 -108 163 -61 37 25 39 25 180 21 380 -13 467 -18 467 -26 0 -26 -66 -176
-101 -228 -52 -78 -162 -181 -241 -224 -35 -20 -99 -48 -143 -63 -72 -26 -93
-28 -215 -28 -118 0 -145 3 -212 26 -123 41 -204 92 -298 187 -94 95 -142 175
-181 301 -34 107 -34 283 0 390 39 126 87 206 181 301 156 157 318 222 535
215 83 -3 128 -10 186 -29z m3193 -31 c124 -41 201 -89 297 -185 69 -70 94
-104 127 -172 63 -131 76 -186 76 -324 0 -138 -13 -192 -76 -325 -34 -70 -57
-100 -132 -175 -73 -73 -107 -99 -176 -133 -123 -60 -194 -76 -330 -76 -137 0
-209 16 -330 76 -111 55 -247 187 -302 293 -63 121 -83 203 -83 340 0 137 20
220 83 338 56 108 247 296 273 270 4 -5 44 -105 89 -223 45 -118 93 -244 107
-280 26 -67 29 -84 17 -138 -18 -89 76 -153 156 -105 73 43 63 146 -17 185
-23 11 -42 55 -139 308 -62 162 -113 298 -114 303 0 4 12 12 28 18 119 47 314
49 446 5z m-2764 -330 c53 -111 72 -183 74 -285 l1 -86 -50 2 c-27 1 -170 5
-317 9 l-267 6 25 37 c13 20 35 53 49 73 14 20 71 102 127 181 57 79 123 173
148 210 l45 68 63 -67 c41 -44 76 -94 102 -148z m677 -332 c-3 -3 -12 -4 -19
-1 -8 3 -5 6 6 6 11 1 17 -2 13 -5z m-1303 -37 c38 -27 -2 -95 -41 -71 -25 16
-29 55 -7 71 10 7 21 13 24 13 3 0 14 -6 24 -13z m3166 -1 c29 -36 -13 -92
-57 -75 -26 9 -32 56 -11 77 16 16 53 15 68 -2z m-1783 -22 c-3 -3 -12 -4 -19
-1 -8 3 -5 6 6 6 11 1 17 -2 13 -5z"/>
<path d="M1066 6583 c-10 -10 -7 -58 5 -70 8 -8 5 -50 -11 -153 -20 -129 -20
-144 -6 -158 10 -10 68 -24 158 -38 179 -29 214 -30 226 -6 5 9 17 71 27 137
11 78 24 129 36 146 23 33 35 79 21 79 -10 0 -370 55 -423 64 -15 3 -29 2 -33
-1z"/>
<path d="M12740 7323 c-28 -26 -33 -38 -50 -148 -26 -160 -26 -179 5 -203 l25
-20 -69 -453 c-64 -414 -69 -455 -56 -485 9 -21 26 -39 47 -48 41 -18 898
-149 942 -144 l31 3 -3 -107 c-4 -97 -2 -111 21 -162 l26 -56 -30 0 c-42 0
-69 -31 -69 -81 0 -35 6 -48 39 -80 45 -45 74 -49 204 -24 121 23 110 31 156
-108 23 -67 41 -128 41 -134 0 -11 -296 -436 -353 -507 l-23 -28 -85 40 c-116
55 -201 75 -329 74 -298 -1 -557 -168 -679 -439 -49 -109 -64 -196 -58 -343 4
-108 9 -136 35 -208 88 -237 258 -397 502 -474 63 -19 96 -23 210 -23 115 0
145 4 205 24 253 85 423 254 501 496 l22 70 147 -3 c145 -3 146 -3 133 17 -11
18 -9 24 15 49 l28 29 -38 6 c-21 4 -81 7 -133 7 -138 0 -140 1 -140 67 0 164
-77 354 -194 480 l-54 58 41 60 c22 33 97 140 166 238 l125 179 140 -420 140
-420 -24 -52 c-20 -42 -22 -55 -12 -71 7 -10 12 -30 12 -44 0 -25 1 -25 83
-25 79 -1 81 -1 50 -15 -36 -16 -73 -68 -73 -103 0 -38 30 -92 61 -107 77 -41
167 2 178 84 6 41 8 43 66 67 47 19 78 24 143 24 80 0 82 0 82 25 0 23 3 24
78 27 l77 3 3 31 c4 43 -26 76 -107 115 -39 19 -69 37 -68 41 1 4 224 203 496
443 478 422 495 436 506 413 11 -20 57 -143 139 -363 l23 -61 -75 -54 c-97
-71 -172 -162 -228 -275 -59 -121 -78 -216 -72 -365 8 -198 76 -349 222 -496
69 -69 97 -89 186 -133 58 -28 137 -58 175 -66 330 -70 681 100 825 399 106
219 106 443 2 666 -78 167 -262 325 -447 383 -129 41 -300 42 -430 3 -27 -9
-53 -12 -57 -8 -13 13 -272 684 -325 842 l-26 75 96 90 c134 127 136 132 83
242 -29 60 -40 73 -69 82 -62 21 -119 -20 -119 -84 0 -38 33 -85 59 -85 17 0
17 -15 -2 -30 -12 -10 -36 -9 -123 4 -149 24 -148 23 -176 51 -37 36 -88 34
-128 -5 -26 -27 -30 -36 -25 -68 10 -57 45 -82 115 -80 52 1 99 -4 174 -18
l27 -5 -20 -32 c-10 -18 -19 -44 -19 -59 0 -35 34 -126 53 -141 12 -11 97
-220 97 -240 0 -4 -175 -7 -390 -7 -335 0 -390 2 -390 15 0 8 16 58 35 112 19
54 35 109 35 122 0 46 -40 110 -83 135 -50 29 -220 82 -539 167 -221 58 -237
64 -233 83 3 12 16 97 30 190 14 94 27 172 30 174 2 2 23 -11 47 -30 24 -19
71 -54 104 -76 l62 -41 38 28 c54 39 82 73 66 78 -28 10 -171 119 -232 177
-86 81 -119 125 -170 226 -125 249 -168 457 -115 560 24 47 91 74 146 60 55
-15 116 -80 162 -172 41 -81 49 -71 15 19 -29 78 -104 154 -177 178 -75 25
-219 17 -323 -17 l-78 -26 0 33 c0 37 -35 81 -72 90 -51 11 -950 145 -978 145
-18 0 -41 -10 -60 -27z m553 -173 c215 -33 404 -65 419 -71 36 -15 58 -50 58
-95 0 -54 -148 -999 -161 -1027 -6 -14 -26 -33 -45 -43 -33 -18 -37 -18 -416
40 -211 31 -397 62 -414 67 -36 11 -69 44 -77 77 -3 13 30 253 74 534 70 455
82 515 102 536 18 20 45 37 65 41 1 1 179 -26 395 -59z m617 -137 c-12 -16
-35 -49 -52 -75 -17 -27 -33 -48 -35 -48 -4 0 2 46 12 96 3 13 19 27 42 37 54
22 57 20 33 -10z m250 -1729 c24 -5 36 -21 103 -132 l19 -33 -92 3 -93 3 -23
67 c-41 124 -43 112 12 104 27 -4 60 -9 74 -12z m516 -76 c-3 -13 -6 -29 -6
-36 0 -21 -17 -5 -28 28 -10 28 -9 30 15 30 21 0 24 -3 19 -22z m-251 -309
l78 -121 -37 -260 c-20 -144 -35 -263 -32 -265 2 -2 7 14 11 36 8 48 7 48 160
26 55 -8 105 -15 111 -15 6 0 69 162 140 360 l129 360 378 0 c207 0 377 -2
377 -4 0 -3 -610 -544 -954 -846 l-35 -31 -58 15 c-32 9 -111 21 -174 28
l-116 12 -123 370 c-68 204 -129 390 -136 414 l-13 42 108 0 108 0 78 -121z
m-1051 -295 c38 -7 107 -32 153 -55 l83 -41 -47 -67 c-250 -354 -358 -501
-370 -501 -25 0 -65 -33 -78 -65 -28 -68 10 -132 84 -142 33 -5 47 -1 74 20
l34 26 298 -10 c164 -5 301 -11 303 -14 3 -3 -3 -32 -13 -65 -51 -167 -199
-342 -355 -418 -47 -23 -112 -49 -145 -57 -363 -94 -739 111 -861 470 -36 107
-44 267 -19 380 64 289 328 526 615 554 88 8 149 4 244 -15z m3214 -35 c263
-69 460 -280 517 -554 48 -230 -35 -488 -211 -655 -213 -202 -521 -255 -783
-134 -187 86 -319 233 -387 430 -25 71 -28 93 -28 219 -1 157 13 218 81 347
54 103 217 268 264 268 14 0 32 -43 171 -409 51 -133 67 -186 59 -194 -16 -16
-13 -75 6 -107 32 -55 102 -66 152 -24 58 49 47 135 -23 174 -26 14 -42 49
-142 310 -62 162 -113 298 -114 302 0 11 99 38 172 47 82 11 175 4 266 -20z
m-2812 -220 c93 -120 147 -270 148 -409 1 -60 -2 -75 -14 -75 -164 1 -587 19
-594 25 -6 6 -2 18 10 32 11 13 36 48 57 78 40 60 74 109 215 308 108 153 94
149 178 41z m761 -445 c-3 -3 -12 -4 -19 -1 -8 3 -5 6 6 6 11 1 17 -2 13 -5z
m-1303 -37 c22 -16 18 -55 -6 -71 -40 -24 -80 44 -42 71 10 7 21 13 24 13 3 0
14 -6 24 -13z m3166 -1 c29 -36 -13 -92 -57 -75 -26 9 -32 56 -11 77 16 16 53
15 68 -2z m-1783 -22 c-3 -3 -12 -4 -19 -1 -8 3 -5 6 6 6 11 1 17 -2 13 -5z"/>
<path d="M12986 6583 c-10 -10 -7 -58 5 -70 8 -8 5 -50 -11 -153 -20 -129 -20
-144 -6 -158 10 -10 68 -24 158 -38 179 -29 214 -30 226 -6 5 9 17 71 27 137
11 78 24 129 36 146 23 33 35 79 21 79 -10 0 -370 55 -423 64 -15 3 -29 2 -33
-1z"/>
<path d="M10821 7325 c1 -19 18 -51 18 -35 0 8 -4 22 -9 30 -5 8 -9 11 -9 5z"/>
<path d="M2635 7260 c10 -11 20 -20 23 -20 3 0 -3 9 -13 20 -10 11 -20 20 -23
20 -3 0 3 -9 13 -20z"/>
<path d="M14555 7260 c10 -11 20 -20 23 -20 3 0 -3 9 -13 20 -10 11 -20 20
-23 20 -3 0 3 -9 13 -20z"/>
<path d="M16462 7120 c0 -19 2 -27 5 -17 2 9 2 25 0 35 -3 9 -5 1 -5 -18z"/>
<path d="M16675 7060 c-14 -27 -23 -50 -20 -50 2 0 16 23 30 50 14 28 23 50
20 50 -2 0 -16 -22 -30 -50z"/>
<path d="M16452 7050 c0 -19 2 -27 5 -17 2 9 2 25 0 35 -3 9 -5 1 -5 -18z"/>
<path d="M10650 7067 c0 -4 9 -24 19 -45 27 -53 131 -217 131 -206 0 4 -24 47
-54 94 -29 47 -63 103 -74 125 -12 22 -21 36 -22 32z"/>
<path d="M16442 6975 c0 -16 2 -22 5 -12 2 9 2 23 0 30 -3 6 -5 -1 -5 -18z"/>
<path d="M16432 6905 c0 -16 2 -22 5 -12 2 9 2 23 0 30 -3 6 -5 -1 -5 -18z"/>
<path d="M16555 6830 c-14 -27 -23 -50 -20 -50 2 0 16 23 30 50 14 28 23 50
20 50 -2 0 -16 -22 -30 -50z"/>
<path d="M16422 6830 c0 -19 2 -27 5 -17 2 9 2 25 0 35 -3 9 -5 1 -5 -18z"/>
<path d="M10911 6814 c0 -11 3 -14 6 -6 3 7 2 16 -1 19 -3 4 -6 -2 -5 -13z"/>
<path d="M16412 6760 c0 -19 2 -27 5 -17 2 9 2 25 0 35 -3 9 -5 1 -5 -18z"/>
<path d="M10813 6735 c0 -22 2 -30 4 -17 2 12 2 30 0 40 -3 9 -5 -1 -4 -23z"/>
<path d="M16402 6685 c0 -16 2 -22 5 -12 2 9 2 23 0 30 -3 6 -5 -1 -5 -18z"/>
<path d="M16440 6610 c-11 -22 -18 -40 -15 -40 2 0 14 18 25 40 11 22 18 40
15 40 -2 0 -14 -18 -25 -40z"/>
<path d="M16392 6615 c0 -16 2 -22 5 -12 2 9 2 23 0 30 -3 6 -5 -1 -5 -18z"/>
<path d="M16491 6455 c1 -19 18 -51 18 -35 0 8 -4 22 -9 30 -5 8 -9 11 -9 5z"/>
<path d="M16320 6197 c0 -4 9 -24 19 -45 27 -53 131 -217 131 -206 0 4 -24 47
-54 94 -29 47 -63 103 -74 125 -12 22 -21 36 -22 32z"/>
<path d="M16581 5944 c0 -11 3 -14 6 -6 3 7 2 16 -1 19 -3 4 -6 -2 -5 -13z"/>
<path d="M16483 5865 c0 -22 2 -30 4 -17 2 12 2 30 0 40 -3 9 -5 -1 -4 -23z"/>
<path d="M7453 4852 c-106 -38 -190 -120 -243 -237 -42 -91 -53 -159 -48 -279
l5 -106 -61 0 c-78 -1 -132 -25 -195 -88 -179 -179 -174 -524 10 -713 54 -55
112 -87 174 -96 50 -6 49 -6 35 -34 -9 -16 -7 -19 10 -19 14 0 20 -7 20 -22 0
-25 36 -421 46 -508 l6 -55 -23 20 -22 20 22 -31 22 -30 -43 -80 c-42 -77 -43
-82 -43 -169 1 -81 5 -104 49 -230 44 -125 49 -149 50 -230 0 -73 -4 -99 -22
-139 -12 -27 -20 -51 -17 -54 2 -3 15 17 27 44 19 41 22 66 22 149 0 93 -3
110 -46 235 -53 155 -64 211 -52 278 l8 47 7 -50 6 -50 2 45 2 45 15 -35 c8
-19 60 -80 114 -136 59 -59 108 -119 119 -145 12 -24 21 -38 21 -31 0 30 -39
83 -136 183 -131 136 -151 191 -95 260 l19 24 29 -25 28 -25 -22 26 c-24 27
-28 49 -15 77 5 9 5 31 1 47 l-7 30 -2 -35 c-3 -63 -9 -19 -35 263 -30 329
-29 298 -9 290 14 -5 15 -3 5 15 -15 28 -14 32 7 32 10 0 41 11 67 25 37 18
51 21 57 12 5 -8 8 -6 8 7 0 10 18 39 41 63 105 114 147 333 93 486 -8 22 -14
41 -14 43 0 2 21 4 48 4 31 0 67 10 107 29 264 125 352 544 161 767 -75 88
-206 124 -313 86z m7 -47 c0 -3 -27 -38 -61 -77 -33 -40 -79 -110 -102 -156
-28 -58 -45 -82 -56 -79 -24 4 -16 61 19 135 37 78 136 182 174 182 14 0 26
-2 26 -5z m-214 -396 c-3 -34 -6 -74 -7 -88 -1 -57 -18 14 -18 82 -1 56 2 67
15 67 15 0 16 -9 10 -61z m-311 -352 c-40 -86 -65 -174 -65 -227 0 -41 -6 -51
-26 -43 -32 12 -5 178 43 266 25 44 71 93 80 84 2 -2 -13 -38 -32 -80z m-72
-314 c3 -5 7 -30 10 -58 6 -48 6 -49 -7 -20 -20 45 -28 85 -17 85 5 0 12 -3
14 -7z"/>
<path d="M2303 3627 c-41 -45 -52 -70 -35 -81 5 -3 7 -18 5 -33 l-5 -28 132
-29 c73 -16 138 -35 145 -42 7 -7 21 -11 31 -8 11 3 107 -15 214 -40 210 -49
210 -49 210 12 0 43 -58 101 -181 182 -110 73 -133 75 -155 20 -9 -22 -20 -40
-25 -40 -4 0 -24 9 -43 21 l-36 21 -35 -22 c-29 -18 -38 -20 -50 -10 -8 7 -15
19 -15 26 0 26 -39 54 -74 54 -28 0 -35 4 -38 21 -3 20 -8 17 -45 -24z"/>
<path d="M14223 3627 c-41 -45 -52 -70 -35 -81 5 -3 7 -18 5 -33 l-5 -28 132
-29 c73 -16 138 -35 145 -42 7 -7 21 -11 31 -8 11 3 107 -15 214 -40 210 -49
210 -49 210 12 0 43 -58 101 -181 182 -110 73 -133 75 -155 20 -9 -22 -20 -40
-25 -40 -4 0 -24 9 -43 21 l-36 21 -35 -22 c-29 -18 -38 -20 -50 -10 -8 7 -15
19 -15 26 0 26 -39 54 -74 54 -28 0 -35 4 -38 21 -3 20 -8 17 -45 -24z"/>
<path d="M7312 3310 c0 -19 2 -27 5 -17 2 9 2 25 0 35 -3 9 -5 1 -5 -18z"/>
<path d="M7525 3250 c-14 -27 -23 -50 -20 -50 2 0 16 23 30 50 14 28 23 50 20
50 -2 0 -16 -22 -30 -50z"/>
<path d="M7302 3240 c0 -19 2 -27 5 -17 2 9 2 25 0 35 -3 9 -5 1 -5 -18z"/>
<path d="M7292 3165 c0 -16 2 -22 5 -12 2 9 2 23 0 30 -3 6 -5 -1 -5 -18z"/>
<path d="M7282 3095 c0 -16 2 -22 5 -12 2 9 2 23 0 30 -3 6 -5 -1 -5 -18z"/>
<path d="M7405 3020 c-14 -27 -23 -50 -20 -50 2 0 16 23 30 50 14 28 23 50 20
50 -2 0 -16 -22 -30 -50z"/>
<path d="M7272 3020 c0 -19 2 -27 5 -17 2 9 2 25 0 35 -3 9 -5 1 -5 -18z"/>
<path d="M7262 2950 c0 -19 2 -27 5 -17 2 9 2 25 0 35 -3 9 -5 1 -5 -18z"/>
<path d="M7252 2875 c0 -16 2 -22 5 -12 2 9 2 23 0 30 -3 6 -5 -1 -5 -18z"/>
<path d="M7290 2800 c-11 -22 -18 -40 -15 -40 2 0 14 18 25 40 11 22 18 40 15
40 -2 0 -14 -18 -25 -40z"/>
<path d="M7242 2805 c0 -16 2 -22 5 -12 2 9 2 23 0 30 -3 6 -5 -1 -5 -18z"/>
<path d="M7341 2645 c1 -19 18 -51 18 -35 0 8 -4 22 -9 30 -5 8 -9 11 -9 5z"/>
<path d="M7170 2387 c0 -4 9 -24 19 -45 27 -53 131 -217 131 -206 0 4 -24 47
-54 94 -29 47 -63 103 -74 125 -12 22 -21 36 -22 32z"/>
<path d="M7431 2134 c0 -11 3 -14 6 -6 3 7 2 16 -1 19 -3 4 -6 -2 -5 -13z"/>
<path d="M7333 2055 c0 -22 2 -30 4 -17 2 12 2 30 0 40 -3 9 -5 -1 -4 -23z"/>
<path d="M5390 1045 l0 -105 48 0 c65 0 96 18 100 56 2 18 -3 36 -12 43 -14
11 -14 15 1 37 14 22 14 26 -1 49 -15 22 -24 25 -76 25 l-60 0 0 -105z m118
58 c4 -26 -27 -46 -66 -41 -22 2 -28 9 -30 36 l-3 33 48 -3 c41 -3 48 -6 51
-25z m2 -78 c6 -8 9 -23 5 -35 -5 -17 -15 -20 -56 -20 l-49 0 0 35 c0 35 0 35
44 35 26 0 48 -6 56 -15z"/>
<path d="M5580 1140 c0 -5 5 -10 10 -10 6 0 10 5 10 10 0 6 -4 10 -10 10 -5 0
-10 -4 -10 -10z"/>
<path d="M5790 1140 c0 -5 7 -10 15 -10 8 0 15 5 15 10 0 6 -7 10 -15 10 -8 0
-15 -4 -15 -10z"/>
<path d="M5860 1045 c0 -59 4 -105 9 -105 6 0 11 17 13 37 4 50 19 51 48 3 14
-22 31 -40 39 -40 11 0 10 5 -3 25 -9 14 -23 36 -32 50 -16 25 -16 27 11 55
39 41 10 39 -32 -2 l-33 -32 0 57 c0 31 -4 57 -10 57 -6 0 -10 -42 -10 -105z"/>
<path d="M6010 1045 c0 -63 4 -105 10 -105 6 0 10 42 10 105 0 63 -4 105 -10
105 -6 0 -10 -42 -10 -105z"/>
<path d="M6418 1144 c-5 -4 -8 -16 -8 -26 0 -10 -4 -18 -10 -18 -5 0 -10 -7
-10 -15 0 -8 4 -15 10 -15 5 0 10 -28 12 -62 3 -57 5 -63 26 -66 25 -4 30 13
7 22 -23 8 -21 102 3 111 16 6 16 7 0 19 -9 6 -18 22 -20 35 -1 13 -6 19 -10
15z"/>
<path d="M6650 1045 c0 -59 4 -105 9 -105 6 0 11 17 13 37 4 50 19 51 48 3 14
-22 31 -40 39 -40 11 0 10 5 -3 25 -9 14 -23 36 -32 50 -16 25 -16 27 11 55
39 41 10 39 -32 -2 l-33 -32 0 57 c0 31 -4 57 -10 57 -6 0 -10 -42 -10 -105z"/>
<path d="M7060 1045 c0 -63 4 -105 10 -105 6 0 10 42 10 105 0 63 -4 105 -10
105 -6 0 -10 -42 -10 -105z"/>
<path d="M7390 1140 c0 -5 5 -10 10 -10 6 0 10 5 10 10 0 6 -4 10 -10 10 -5 0
-10 -4 -10 -10z"/>
<path d="M7630 1113 c0 -29 -3 -34 -12 -25 -35 35 -88 -7 -88 -68 0 -27 7 -47
20 -60 22 -22 55 -26 65 -10 5 8 11 8 19 1 22 -18 26 -1 26 101 0 80 -3 98
-15 98 -11 0 -15 -11 -15 -37z m-19 -43 c14 -8 19 -21 19 -50 0 -29 -5 -42
-19 -50 -25 -13 -27 -13 -45 6 -9 8 -16 28 -16 44 0 16 7 36 16 44 18 19 20
19 45 6z"/>
<path d="M8460 1045 c0 -59 4 -105 9 -105 6 0 11 17 13 37 4 50 19 51 48 3 14
-22 31 -40 39 -40 11 0 10 5 -3 25 -9 14 -23 36 -32 50 -16 25 -16 27 11 55
39 41 10 39 -32 -2 l-33 -32 0 57 c0 31 -4 57 -10 57 -6 0 -10 -42 -10 -105z"/>
<path d="M9000 1045 c0 -63 4 -105 10 -105 6 0 10 42 10 105 0 63 -4 105 -10
105 -6 0 -10 -42 -10 -105z"/>
<path d="M9160 1113 c0 -29 -3 -34 -12 -25 -35 35 -88 -7 -88 -68 0 -27 7 -47
20 -60 22 -22 55 -26 65 -10 5 8 11 8 19 1 22 -18 26 -1 26 101 0 80 -3 98
-15 98 -11 0 -15 -11 -15 -37z m-19 -43 c14 -8 19 -21 19 -50 0 -29 -5 -42
-19 -50 -25 -13 -27 -13 -45 6 -9 8 -16 28 -16 44 0 16 7 36 16 44 18 19 20
19 45 6z"/>
<path d="M9982 1138 c6 -18 60 -17 66 2 5 13 3 13 -12 1 -14 -12 -21 -13 -38
-2 -16 10 -19 10 -16 -1z"/>
<path d="M10460 1113 c0 -29 -3 -34 -12 -25 -35 35 -88 -7 -88 -68 0 -27 7
-47 20 -60 22 -22 55 -26 65 -10 5 8 11 8 19 1 22 -18 26 -1 26 101 0 80 -3
98 -15 98 -11 0 -15 -11 -15 -37z m-19 -43 c14 -8 19 -21 19 -50 0 -29 -5 -42
-19 -50 -25 -13 -27 -13 -45 6 -9 8 -16 28 -16 44 0 16 7 36 16 44 18 19 20
19 45 6z"/>
<path d="M10722 1138 c6 -18 60 -17 66 2 5 13 3 13 -12 1 -14 -12 -21 -13 -38
-2 -16 10 -19 10 -16 -1z"/>
<path d="M11210 1045 c0 -63 4 -105 10 -105 6 0 10 27 10 60 0 48 4 61 19 70
25 13 27 13 45 -6 11 -10 16 -34 16 -70 0 -30 5 -54 10 -54 6 0 10 28 10 63 0
52 -4 67 -21 82 -17 16 -25 17 -50 8 -29 -11 -29 -11 -29 23 0 19 -4 34 -10
34 -6 0 -10 -42 -10 -105z"/>
<path d="M11800 1045 c0 -59 4 -105 9 -105 6 0 11 17 13 37 4 50 19 51 48 3
14 -22 31 -40 39 -40 11 0 10 5 -3 25 -9 14 -23 36 -32 50 -16 25 -16 27 11
55 39 41 10 39 -32 -2 l-33 -32 0 57 c0 31 -4 57 -10 57 -6 0 -10 -42 -10
-105z"/>
<path d="M12128 1144 c-5 -4 -8 -16 -8 -26 0 -10 -4 -18 -10 -18 -5 0 -10 -7
-10 -15 0 -8 4 -15 10 -15 5 0 10 -28 12 -62 3 -57 5 -63 26 -66 25 -4 30 13
7 22 -23 8 -21 102 3 111 16 6 16 7 0 19 -9 6 -18 22 -20 35 -1 13 -6 19 -10
15z"/>
<path d="M12540 1115 c0 -32 -2 -35 -19 -25 -48 25 -91 -7 -91 -68 0 -60 55
-102 89 -69 11 10 14 10 18 0 14 -38 23 -1 23 92 0 63 -4 105 -10 105 -5 0
-10 -16 -10 -35z m-20 -55 c24 -24 25 -48 4 -78 -18 -26 -31 -28 -56 -5 -22
20 -24 66 -2 87 20 21 30 20 54 -4z"/>
<path d="M6237 1111 c-8 -16 -11 -33 -6 -38 4 -4 9 -32 11 -62 3 -53 26 -87
45 -67 4 5 2 11 -4 13 -16 6 -18 113 -3 113 6 0 10 7 10 15 0 8 -4 15 -10 15
-5 0 -10 9 -10 20 0 29 -16 25 -33 -9z"/>
<path d="M7730 1130 c0 -5 5 -10 10 -10 6 0 10 5 10 10 0 6 -4 10 -10 10 -5 0
-10 -4 -10 -10z"/>
<path d="M7780 1130 c0 -5 5 -10 10 -10 6 0 10 5 10 10 0 6 -4 10 -10 10 -5 0
-10 -4 -10 -10z"/>
<path d="M5580 1020 c0 -47 4 -80 10 -80 6 0 10 33 10 80 0 47 -4 80 -10 80
-6 0 -10 -33 -10 -80z"/>
<path d="M5656 1087 c-11 -8 -17 -23 -14 -37 2 -19 13 -27 51 -39 51 -16 55
-22 31 -42 -14 -11 -21 -10 -46 4 -34 20 -42 18 -32 -7 14 -36 96 -29 111 10
9 25 -9 47 -48 57 -44 11 -58 25 -39 37 21 14 36 12 54 -5 11 -11 17 -12 22
-4 9 15 -23 39 -51 39 -12 0 -29 -6 -39 -13z"/>
<path d="M5795 1088 c-9 -24 -1 -143 10 -143 13 0 19 135 6 148 -7 7 -12 5
-16 -5z"/>
<path d="M6089 1081 c-18 -14 -24 -29 -24 -61 0 -70 64 -103 116 -61 30 24 19
39 -13 17 -28 -20 -42 -20 -62 0 -27 26 -19 33 42 36 54 3 57 4 54 28 -5 53
-69 77 -113 41z m72 -11 c32 -18 21 -30 -26 -30 -47 0 -58 12 -27 29 22 13 29
13 53 1z"/>
<path d="M6499 1081 c-18 -14 -24 -29 -24 -61 0 -70 64 -103 116 -61 30 24 19
39 -13 17 -28 -20 -42 -20 -62 0 -27 26 -19 33 42 36 54 3 57 4 54 28 -5 53
-69 77 -113 41z m72 -11 c32 -18 21 -30 -26 -30 -47 0 -58 12 -27 29 22 13 29
13 53 1z"/>
<path d="M6810 1080 c-13 -13 -20 -33 -20 -60 0 -66 54 -100 111 -70 20 11 27
40 9 40 -5 0 -10 -4 -10 -9 0 -19 -41 -23 -65 -7 -39 26 -29 36 35 36 54 0 60
2 60 20 0 29 -44 70 -75 70 -14 0 -34 -9 -45 -20z m81 -20 l24 -19 -52 -1
c-54 0 -67 11 -35 29 25 15 37 13 63 -9z"/>
<path d="M6960 1020 c0 -47 4 -80 10 -80 6 0 10 20 10 44 0 58 16 100 35 92 8
-3 17 -1 20 5 10 15 -24 23 -40 9 -10 -9 -15 -9 -15 -1 0 6 -4 11 -10 11 -6 0
-10 -33 -10 -80z"/>
<path d="M7140 1080 c-13 -13 -20 -33 -20 -60 0 -66 54 -100 111 -70 20 11 27
40 9 40 -5 0 -10 -4 -10 -9 0 -19 -41 -23 -65 -7 -39 26 -29 36 35 36 54 0 60
2 60 20 0 29 -44 70 -75 70 -14 0 -34 -9 -45 -20z m81 -20 l24 -19 -52 -1
c-54 0 -67 11 -35 29 25 15 37 13 63 -9z"/>
<path d="M7290 1020 c0 -47 4 -80 10 -80 6 0 10 20 10 44 0 58 16 100 35 92 8
-3 17 -1 20 5 10 15 -24 23 -40 9 -10 -9 -15 -9 -15 -1 0 6 -4 11 -10 11 -6 0
-10 -33 -10 -80z"/>
<path d="M7390 1020 c0 -47 4 -80 10 -80 6 0 10 33 10 80 0 47 -4 80 -10 80
-6 0 -10 -33 -10 -80z"/>
<path d="M7723 1085 c-62 -44 -20 -159 52 -141 37 9 55 34 55 75 0 65 -58 100
-107 66z m65 -21 c49 -34 6 -123 -47 -94 -28 14 -30 84 -3 99 23 14 24 14 50
-5z"/>
<path d="M7870 1020 c0 -47 4 -80 10 -80 6 0 10 27 10 60 0 48 4 61 19 70 25
13 27 13 45 -6 11 -10 16 -34 16 -70 0 -30 5 -54 10 -54 6 0 10 28 10 64 0 86
-27 114 -81 86 -13 -7 -19 -7 -19 0 0 5 -4 10 -10 10 -6 0 -10 -33 -10 -80z"/>
<path d="M8045 1075 c-16 -15 -25 -36 -25 -55 0 -38 39 -80 73 -80 27 0 76 34
65 45 -3 4 -18 -1 -32 -10 -29 -19 -61 -13 -76 16 -10 18 -7 19 50 19 57 0 60
1 60 25 0 32 -33 65 -65 65 -14 0 -37 -11 -50 -25z m76 -5 c34 -19 21 -30 -33
-30 l-53 1 24 19 c27 23 35 24 62 10z"/>
<path d="M8200 1021 c0 -47 4 -81 10 -81 6 0 10 26 10 59 0 59 17 91 40 76 5
-3 10 1 10 9 0 18 -25 22 -35 6 -5 -8 -11 -7 -21 1 -12 10 -14 -1 -14 -70z"/>
<path d="M8309 1081 c-18 -14 -24 -29 -24 -61 0 -70 64 -103 116 -61 30 24 19
39 -13 17 -28 -20 -42 -20 -62 0 -27 26 -19 33 42 36 54 3 57 4 54 28 -5 53
-69 77 -113 41z m72 -11 c32 -18 21 -30 -26 -30 -47 0 -58 12 -27 29 22 13 29
13 53 1z"/>
<path d="M8694 1079 c-25 -27 -10 -50 44 -67 23 -8 42 -20 42 -27 0 -22 -39
-28 -66 -10 -34 22 -46 9 -15 -16 40 -33 101 -18 101 25 0 29 -17 44 -59 52
-38 8 -46 18 -26 34 12 10 21 10 42 1 32 -15 45 -4 19 15 -28 20 -60 17 -82
-7z"/>
<path d="M8852 1080 c-31 -29 -30 -89 1 -118 49 -46 112 -13 112 58 0 70 -65
104 -113 60z m69 -10 c28 -15 27 -85 -2 -100 -53 -29 -96 60 -47 94 27 19 24
19 49 6z"/>
<path d="M9258 1093 c-17 -4 -33 -32 -23 -41 3 -3 13 2 23 11 23 21 46 22 63
1 10 -13 10 -17 -2 -25 -8 -5 -22 -9 -32 -9 -49 0 -78 -41 -51 -71 19 -21 46
-24 74 -9 13 7 21 7 25 0 16 -25 22 -4 18 58 -7 85 -27 103 -95 85z m70 -95
c-3 -7 -16 -20 -31 -28 -30 -17 -54 -3 -44 24 8 20 81 23 75 4z"/>
<path d="M9400 1020 c0 -47 4 -80 10 -80 6 0 10 27 10 60 0 48 4 61 19 70 25
13 27 13 45 -6 11 -10 16 -34 16 -70 0 -30 5 -54 10 -54 6 0 10 28 10 64 0 86
-27 114 -81 86 -13 -7 -19 -7 -19 0 0 5 -4 10 -10 10 -6 0 -10 -33 -10 -80z"/>
<path d="M9658 1089 c-29 -16 -23 -58 10 -70 15 -6 38 -16 52 -21 24 -9 24
-10 5 -24 -25 -18 -40 -18 -60 2 -18 18 -30 13 -22 -10 17 -44 112 -23 112 24
0 20 -9 28 -45 41 -50 19 -61 34 -30 44 14 4 28 1 40 -10 23 -21 36 -3 14 19
-18 18 -51 20 -76 5z"/>
<path d="M9818 1093 c-17 -4 -33 -32 -23 -41 3 -3 13 2 23 11 23 21 46 22 63
1 10 -13 10 -17 -2 -25 -8 -5 -22 -9 -32 -9 -49 0 -78 -41 -51 -71 19 -21 46
-24 74 -9 13 7 21 7 25 0 16 -25 22 -4 18 58 -7 85 -27 103 -95 85z m70 -95
c-3 -7 -16 -20 -31 -28 -30 -17 -54 -3 -44 24 8 20 81 23 75 4z"/>
<path d="M9970 1080 c-20 -20 -27 -71 -14 -105 10 -24 51 -37 75 -24 18 9 20
8 17 -13 -4 -27 -49 -38 -74 -17 -8 6 -18 9 -22 5 -14 -15 40 -48 67 -41 45
11 55 30 59 110 5 87 -1 113 -22 96 -10 -8 -16 -9 -21 -1 -10 16 -43 12 -65
-10z m61 -10 c19 -11 26 -51 13 -84 -7 -19 -45 -21 -62 -4 -17 17 -15 64 4 82
18 19 20 19 45 6z"/>
<path d="M10138 1089 c-10 -5 -18 -17 -18 -24 0 -19 8 -19 26 0 19 19 35 19
60 0 16 -13 17 -16 4 -25 -8 -5 -27 -10 -41 -10 -34 0 -63 -32 -54 -59 8 -26
42 -35 77 -22 18 7 29 6 37 -2 8 -8 11 8 11 61 0 60 -3 73 -19 82 -25 13 -61
12 -83 -1z m80 -91 c-3 -7 -16 -20 -30 -28 -22 -12 -29 -12 -42 -1 -12 10 -14
17 -5 27 15 18 82 19 77 2z"/>
<path d="M10553 1085 c-62 -44 -20 -159 52 -141 37 9 55 34 55 75 0 65 -58
100 -107 66z m65 -21 c49 -34 6 -123 -47 -94 -28 14 -30 84 -3 99 23 14 24 14
50 -5z"/>
<path d="M10710 1080 c-20 -20 -27 -71 -14 -105 10 -24 51 -37 75 -24 18 9 20
8 17 -13 -4 -27 -49 -38 -74 -17 -8 6 -18 9 -22 5 -14 -15 40 -48 67 -41 45
11 55 30 59 110 5 87 -1 113 -22 96 -10 -8 -16 -9 -21 -1 -10 16 -43 12 -65
-10z m61 -10 c19 -11 26 -51 13 -84 -7 -19 -45 -21 -62 -4 -17 17 -15 64 4 82
18 19 20 19 45 6z"/>
<path d="M10860 1020 c0 -47 4 -80 10 -80 6 0 10 20 10 44 0 58 16 100 35 92
8 -3 17 -1 20 5 10 15 -24 23 -40 9 -10 -9 -15 -9 -15 -1 0 6 -4 11 -10 11 -6
0 -10 -33 -10 -80z"/>
<path d="M10960 1036 c0 -45 5 -69 16 -80 19 -19 45 -21 63 -3 11 10 14 10 18
0 13 -35 23 -5 23 67 0 47 -4 80 -10 80 -5 0 -10 -24 -10 -54 0 -36 -5 -60
-16 -70 -37 -38 -64 -10 -64 66 0 32 -4 58 -10 58 -6 0 -10 -28 -10 -64z"/>
<path d="M11398 1093 c-17 -4 -33 -32 -23 -41 3 -3 13 2 23 11 23 21 46 22 63
1 10 -13 10 -17 -2 -25 -8 -5 -22 -9 -32 -9 -49 0 -78 -41 -51 -71 19 -21 46
-24 74 -9 13 7 21 7 25 0 16 -25 22 -4 18 58 -7 85 -27 103 -95 85z m70 -95
c-3 -7 -16 -20 -31 -28 -30 -17 -54 -3 -44 24 8 20 81 23 75 4z"/>
<path d="M11536 1089 c-10 -24 -3 -144 9 -142 6 2 12 28 15 60 4 49 9 59 30
70 21 10 22 13 7 19 -9 3 -24 1 -31 -5 -11 -9 -15 -9 -19 1 -3 10 -6 9 -11 -3z"/>
<path d="M11649 1081 c-18 -14 -24 -29 -24 -61 0 -70 64 -103 116 -61 30 24
19 39 -13 17 -28 -20 -42 -20 -62 0 -27 26 -19 33 42 36 54 3 57 4 54 28 -5
53 -69 77 -113 41z m72 -11 c32 -18 21 -30 -26 -30 -47 0 -58 12 -27 29 22 13
29 13 53 1z"/>
<path d="M11960 1080 c-13 -13 -20 -33 -20 -60 0 -66 54 -100 111 -70 20 11
27 40 9 40 -5 0 -10 -4 -10 -9 0 -19 -41 -23 -65 -7 -39 26 -29 36 35 36 54 0
60 2 60 20 0 29 -44 70 -75 70 -14 0 -34 -9 -45 -20z m81 -20 l24 -19 -52 -1
c-54 0 -67 11 -35 29 25 15 37 13 63 -9z"/>
<path d="M12289 1081 c-18 -14 -24 -29 -24 -61 0 -70 64 -103 116 -61 30 24
19 39 -13 17 -28 -20 -42 -20 -62 0 -27 26 -19 33 42 36 54 3 57 4 54 28 -5
53 -69 77 -113 41z m72 -11 c32 -18 21 -30 -26 -30 -47 0 -58 12 -27 29 22 13
29 13 53 1z"/>
<path d="M12619 1081 c-18 -14 -24 -29 -24 -61 0 -70 64 -103 116 -61 30 24
19 39 -13 17 -28 -20 -42 -20 -62 0 -27 26 -19 33 42 36 54 3 57 4 54 28 -5
53 -69 77 -113 41z m72 -11 c32 -18 21 -30 -26 -30 -47 0 -58 12 -27 29 22 13
29 13 53 1z"/>
<path d="M12770 1020 c0 -47 4 -80 10 -80 6 0 10 23 10 51 0 58 15 93 36 85 8
-3 14 1 14 9 0 18 -21 20 -38 3 -9 -9 -12 -9 -12 0 0 7 -4 12 -10 12 -6 0 -10
-33 -10 -80z"/>
<path d="M12860 955 c0 -8 5 -15 10 -15 6 0 10 7 10 15 0 8 -4 15 -10 15 -5 0
-10 -7 -10 -15z"/>
<path d="M6200 695 l0 -105 54 0 c68 0 85 7 97 38 7 18 5 31 -6 48 -12 18 -13
29 -5 43 14 28 13 38 -10 61 -15 15 -33 20 -75 20 l-55 0 0 -105z m108 76 c8
-4 12 -19 10 -32 -2 -20 -9 -24 -45 -27 l-43 -3 0 35 c0 34 2 36 33 36 17 0
38 -4 45 -9z m3 -91 c21 -12 25 -40 7 -58 -7 -7 -29 -12 -50 -12 -38 0 -38 0
-38 40 0 38 2 40 31 40 17 0 39 -5 50 -10z"/>
<path d="M6560 695 c0 -63 4 -105 10 -105 6 0 10 42 10 105 0 63 -4 105 -10
105 -6 0 -10 -42 -10 -105z"/>
<path d="M6950 695 c0 -87 3 -105 15 -105 12 0 15 18 15 105 0 87 -3 105 -15
105 -12 0 -15 -18 -15 -105z"/>
<path d="M7862 789 c2 -7 12 -17 21 -23 19 -12 47 0 55 23 3 10 -1 10 -17 -1
-17 -11 -25 -11 -42 0 -16 11 -20 11 -17 1z"/>
<path d="M8190 766 c0 -34 0 -34 -39 -29 -32 4 -41 2 -55 -18 -35 -51 -9 -129
43 -129 15 0 32 5 39 12 9 9 12 9 12 0 0 -7 5 -12 10 -12 6 0 10 42 10 105 0
63 -4 105 -10 105 -5 0 -10 -15 -10 -34z m-20 -55 c8 -6 14 -25 14 -46 0 -59
-59 -76 -78 -23 -19 53 21 95 64 69z"/>
<path d="M8980 695 c0 -63 4 -105 10 -105 6 0 10 15 10 34 0 50 14 51 44 6 14
-22 31 -40 36 -40 15 0 13 6 -16 51 l-26 41 28 29 c39 40 9 38 -33 -3 l-33
-32 0 62 c0 35 -4 62 -10 62 -6 0 -10 -42 -10 -105z"/>
<path d="M9650 758 c0 -33 -3 -39 -12 -30 -17 17 -63 15 -79 -5 -8 -9 -14 -35
-14 -58 0 -23 6 -49 14 -58 16 -20 62 -22 79 -5 9 9 12 9 12 0 0 -7 5 -12 10
-12 6 0 10 42 10 105 0 63 -4 105 -10 105 -5 0 -10 -19 -10 -42z m-10 -57 c24
-47 0 -98 -42 -88 -30 8 -43 44 -28 81 12 32 54 36 70 7z"/>
<path d="M9902 789 c8 -23 36 -35 55 -23 9 6 19 16 21 23 3 10 -1 10 -17 -1
-17 -11 -25 -11 -42 0 -16 11 -20 11 -17 1z"/>
<path d="M10390 695 c0 -63 4 -105 10 -105 6 0 10 22 10 48 0 58 17 85 51 80
22 -3 24 -8 27 -65 4 -83 22 -81 22 1 0 75 -13 91 -65 83 -34 -6 -35 -5 -35
29 0 19 -4 34 -10 34 -6 0 -10 -42 -10 -105z"/>
<path d="M10980 695 c0 -87 3 -105 15 -105 10 0 15 10 15 34 0 50 16 52 42 6
13 -22 29 -40 36 -40 9 0 4 16 -15 49 l-27 50 24 25 c32 35 5 34 -32 -1 l-28
-27 0 57 c0 44 -3 57 -15 57 -12 0 -15 -18 -15 -105z"/>
<path d="M11720 767 c0 -32 -2 -33 -30 -29 -44 6 -70 -20 -70 -73 0 -56 22
-75 83 -73 l47 1 0 103 c0 86 -3 104 -15 104 -10 0 -15 -10 -15 -33z m-11 -61
c17 -20 10 -77 -11 -90 -26 -16 -52 4 -56 43 -4 36 12 61 38 61 10 0 23 -6 29
-14z"/>
<path d="M11308 784 c-5 -4 -8 -15 -8 -25 0 -9 -6 -20 -12 -22 -10 -4 -10 -7
-1 -14 6 -5 13 -35 15 -68 3 -53 5 -60 26 -63 25 -4 30 13 7 22 -11 4 -15 20
-15 56 0 38 4 50 15 50 8 0 15 5 15 10 0 6 -6 10 -14 10 -8 0 -16 12 -18 26
-2 14 -6 22 -10 18z"/>
<path d="M6405 724 c-21 -22 -11 -30 19 -15 29 16 60 11 64 -11 2 -12 -7 -18
-37 -23 -46 -8 -64 -25 -59 -57 3 -21 8 -23 66 -23 l62 -1 0 54 c0 74 -12 92
-60 92 -22 0 -45 -7 -55 -16z m85 -78 c0 -21 -26 -38 -52 -34 -31 4 -29 30 2
39 39 11 50 10 50 -5z"/>
<path d="M6637 722 c-23 -26 -22 -94 1 -115 25 -22 75 -21 95 1 23 26 22 94
-1 115 -25 22 -75 21 -95 -1z m81 -14 c7 -7 12 -26 12 -43 0 -36 -15 -55 -45
-55 -30 0 -45 19 -45 55 0 36 15 55 45 55 12 0 26 -5 33 -12z"/>
<path d="M6790 665 c0 -43 4 -75 10 -75 6 0 10 24 10 53 0 57 12 77 46 77 27
0 34 -17 34 -81 0 -27 5 -49 10 -49 14 0 13 123 -2 138 -7 7 -24 12 -38 12
-14 0 -31 -5 -38 -12 -9 -9 -12 -9 -12 0 0 7 -4 12 -10 12 -6 0 -10 -32 -10
-75z"/>
<path d="M7030 725 c-16 -19 -5 -34 12 -17 17 17 53 15 68 -3 14 -16 12 -18
-49 -32 -42 -11 -61 -36 -45 -60 13 -22 70 -29 90 -12 10 8 14 8 14 0 0 -6 6
-11 13 -11 15 0 11 118 -5 138 -15 17 -83 15 -98 -3z m90 -74 c0 -20 -34 -42
-59 -39 -36 4 -33 31 4 39 45 10 55 10 55 0z"/>
<path d="M7180 663 c0 -57 3 -73 15 -73 10 0 15 16 17 63 3 56 5 62 26 65 38
6 24 21 -18 19 l-40 -1 0 -73z"/>
<path d="M7375 724 c-21 -22 -11 -30 19 -15 29 16 60 11 64 -11 2 -12 -7 -18
-37 -23 -46 -8 -64 -25 -59 -57 3 -21 8 -23 66 -23 l62 -1 0 54 c0 74 -12 92
-60 92 -22 0 -45 -7 -55 -16z m85 -78 c0 -21 -26 -38 -52 -34 -31 4 -29 30 2
39 39 11 50 10 50 -5z"/>
<path d="M7532 728 c-16 -16 -15 -45 1 -55 6 -4 28 -13 47 -18 19 -6 35 -17
35 -25 0 -21 -43 -25 -64 -6 -10 9 -20 13 -24 10 -10 -10 12 -44 28 -44 8 0
15 -6 15 -14 0 -8 6 -16 13 -19 7 -3 2 -9 -13 -15 l-25 -11 27 0 c32 -1 44 14
27 35 -6 8 -10 15 -8 17 2 1 13 7 24 13 12 7 20 22 20 39 0 23 -7 30 -45 44
-25 9 -44 21 -43 26 3 16 34 18 59 4 30 -15 40 -7 19 15 -19 19 -76 21 -93 4z"/>
<path d="M7685 724 c-21 -22 -11 -30 19 -15 29 16 60 11 64 -10 2 -12 -9 -18
-39 -25 -23 -5 -47 -17 -53 -26 -24 -39 36 -74 84 -48 13 7 20 7 20 0 0 -5 5
-10 10 -10 14 0 13 123 -2 138 -17 17 -84 15 -103 -4z m85 -78 c0 -21 -26 -38
-52 -34 -31 4 -29 30 2 39 39 11 50 10 50 -5z"/>
<path d="M7852 727 c-19 -23 -25 -67 -12 -97 14 -33 39 -45 76 -36 26 7 33
-11 12 -32 -15 -15 -54 -16 -63 -2 -3 6 -13 10 -22 10 -14 0 -14 -3 2 -20 23
-25 76 -26 98 -2 13 14 17 38 17 103 l0 85 -49 2 c-29 1 -53 -3 -59 -11z m79
-31 c27 -57 -26 -112 -63 -66 -22 27 -23 54 -2 74 23 23 53 20 65 -8z"/>
<path d="M8010 665 c0 -60 3 -75 15 -75 12 0 15 15 15 75 0 60 -3 75 -15 75
-12 0 -15 -15 -15 -75z"/>
<path d="M8265 724 c-21 -22 -11 -30 19 -15 29 16 60 11 64 -11 2 -12 -7 -18
-37 -23 -46 -8 -64 -25 -59 -57 3 -21 8 -23 66 -23 l62 -1 0 54 c0 74 -12 92
-60 92 -22 0 -45 -7 -55 -16z m85 -78 c0 -21 -26 -38 -52 -34 -31 4 -29 30 2
39 39 11 50 10 50 -5z"/>
<path d="M8420 665 c0 -43 4 -75 10 -75 6 0 10 24 10 53 0 57 12 77 46 77 27
0 34 -17 34 -81 0 -27 5 -49 10 -49 14 0 13 123 -2 138 -7 7 -24 12 -38 12
-14 0 -31 -5 -38 -12 -9 -9 -12 -9 -12 0 0 7 -4 12 -10 12 -6 0 -10 -32 -10
-75z"/>
<path d="M8676 668 c29 -87 30 -108 4 -115 -26 -7 -26 -23 0 -23 24 0 34 19
70 126 20 59 25 84 16 84 -7 0 -21 -26 -31 -57 -19 -62 -16 -64 -49 20 -27 67
-35 39 -10 -35z"/>
<path d="M8810 684 c0 -30 5 -64 10 -75 12 -22 59 -26 78 -7 9 9 12 9 12 0 0
-7 5 -12 10 -12 6 0 10 32 10 75 0 87 -18 102 -22 19 -2 -41 -8 -60 -20 -68
-33 -20 -53 4 -56 68 -4 73 -22 73 -22 0z"/>
<path d="M9135 724 c-21 -22 -11 -30 19 -15 29 16 60 11 64 -11 2 -12 -7 -18
-37 -23 -46 -8 -64 -25 -59 -57 3 -21 8 -23 66 -23 l62 -1 0 54 c0 74 -12 92
-60 92 -22 0 -45 -7 -55 -16z m85 -78 c0 -21 -26 -38 -52 -34 -31 4 -29 30 2
39 39 11 50 10 50 -5z"/>
<path d="M9290 663 c0 -42 4 -73 10 -73 6 0 10 22 10 49 0 62 7 81 31 81 10 0
19 4 19 10 0 5 -16 9 -35 8 l-35 -1 0 -74z"/>
<path d="M9400 665 c0 -43 4 -75 10 -75 6 0 10 32 10 75 0 43 -4 75 -10 75 -6
0 -10 -32 -10 -75z"/>
<path d="M9726 718 c-37 -52 -9 -128 47 -128 41 0 53 9 67 44 20 53 -13 106
-66 106 -23 0 -38 -7 -48 -22z m82 -10 c17 -17 15 -73 -2 -88 -42 -34 -92 22
-68 75 13 27 49 34 70 13z"/>
<path d="M9892 727 c-19 -23 -25 -67 -12 -97 14 -33 39 -45 76 -36 26 7 33
-11 12 -32 -15 -15 -54 -16 -63 -2 -3 6 -13 10 -22 10 -14 0 -14 -3 2 -20 23
-25 76 -26 98 -2 13 14 17 38 17 103 l0 85 -49 2 c-29 1 -53 -3 -59 -11z m79
-31 c27 -57 -26 -112 -63 -66 -22 27 -23 54 -2 74 23 23 53 20 65 -8z"/>
<path d="M10050 663 c0 -89 18 -98 22 -10 3 56 5 62 26 65 36 5 25 22 -13 20
l-35 -1 0 -74z"/>
<path d="M10140 691 c0 -73 13 -101 48 -101 15 0 33 5 40 12 9 9 12 9 12 0 0
-7 7 -12 15 -12 12 0 15 15 15 75 0 60 -3 75 -15 75 -12 0 -15 -13 -15 -60 0
-55 -2 -60 -24 -66 -38 -9 -46 2 -46 67 0 46 -3 59 -15 59 -11 0 -15 -12 -15
-49z"/>
<path d="M10565 724 c-21 -22 -11 -30 19 -15 29 16 60 11 64 -10 2 -12 -9 -18
-39 -25 -23 -5 -47 -17 -53 -26 -24 -39 36 -74 84 -48 13 7 20 7 20 0 0 -5 5
-10 10 -10 14 0 13 123 -2 138 -17 17 -84 15 -103 -4z m85 -78 c0 -21 -26 -38
-52 -34 -31 4 -29 30 2 39 39 11 50 10 50 -5z"/>
<path d="M10720 663 c0 -42 4 -73 10 -73 6 0 10 21 10 46 0 51 14 84 35 84 7
0 16 4 20 9 3 6 -12 9 -35 8 l-40 -1 0 -73z"/>
<path d="M10830 720 c-24 -24 -26 -77 -4 -108 20 -29 83 -31 109 -2 16 17 16
20 2 20 -9 0 -19 -4 -22 -10 -15 -25 -85 1 -85 31 0 5 27 9 60 9 66 0 76 13
44 58 -20 29 -76 30 -104 2z m88 -12 c22 -22 13 -28 -38 -28 -27 0 -50 4 -50
8 0 29 65 43 88 20z"/>
<path d="M11144 726 c-14 -11 -19 -26 -19 -61 0 -35 5 -50 19 -61 26 -19 81
-18 101 2 21 22 11 30 -19 15 -31 -17 -55 -11 -74 17 l-14 22 61 0 c57 0 61 1
61 23 0 49 -71 75 -116 43z m86 -21 c18 -22 9 -27 -46 -23 -46 3 -47 4 -30 21
22 21 59 22 76 2z"/>
<path d="M11474 726 c-14 -11 -19 -26 -19 -61 0 -35 5 -50 19 -61 26 -19 81
-18 101 2 21 22 11 30 -19 15 -31 -17 -55 -11 -74 17 l-14 22 61 0 c57 0 61 1
61 23 0 49 -71 75 -116 43z m86 -21 c18 -22 9 -27 -46 -23 -46 3 -47 4 -30 21
22 21 59 22 76 2z"/>
<path d="M11800 720 c-24 -24 -26 -77 -4 -108 20 -29 83 -31 109 -2 16 17 16
20 2 20 -9 0 -19 -4 -22 -10 -15 -25 -85 1 -85 31 0 5 27 9 60 9 66 0 76 13
44 58 -20 29 -76 30 -104 2z m88 -12 c22 -22 13 -28 -38 -28 -27 0 -50 4 -50
8 0 29 65 43 88 20z"/>
<path d="M11950 663 c0 -57 3 -73 15 -73 10 0 15 16 17 63 3 56 5 62 26 65 38
6 24 21 -18 19 l-40 -1 0 -73z"/>
<path d="M12040 600 c0 -5 5 -10 10 -10 6 0 10 5 10 10 0 6 -4 10 -10 10 -5 0
-10 -4 -10 -10z"/>
</g>
</svg>
